<svg xmlns="http://www.w3.org/2000/svg" width="91.866" height="31.988" viewBox="0 0 91.866 31.988">
  <g transform="translate(-51 -5034)">
    <path d="M71.166,31.987,65.73,26.381V18.272l-1.641-1.413V0H85.812l6.053,5.989v26Zm-2.7-8.384v1.67l3.86,3.98H89.13V7.136l-.789-.783Zm-1.641-8,1.641,1.413v2.964L86.395,4.421,84.7,2.734H66.823ZM39.344,31.987l-5.437-5.606V18.272l-1.641-1.413V0H53.989l6.053,5.989v26Zm-2.7-8.384v1.67l3.86,3.98H57.307V7.136l-.789-.783Zm-1.641-8,1.641,1.413v2.964L54.572,4.421l-1.7-1.687H35ZM7.077,31.987,1.64,26.381V18.272L0,16.859V0H21.722l6.053,5.989v26ZM4.374,23.6v1.67l3.86,3.98H25.04V7.136l-.789-.783Zm-1.641-8,1.641,1.413v2.964L22.3,4.421l-1.7-1.687H2.733Z" transform="translate(51.001 5034)" fill="#fff"/>
  </g>
</svg>
